<svg width="1200" height="1200" xmlns="http://www.w3.org/2000/svg">
 <g>
  <title>background</title>
  <rect fill="none" id="canvas_background" height="1202" width="1202" y="-1" x="-1"/>
 </g>

 <g>
  <title>Layer 1</title>
  <path fill="#7f0000" d="m604.21418,25.00048c-242.52484,0 -439.13129,199.14557 -439.13129,444.80475c0,82.15452 15.87534,167.00632 61.4326,228.16373l377.69869,507.03104l377.69868,-507.03104c41.37995,-55.54848 61.4326,-153.75001 61.4326,-228.16373c0,-245.65918 -196.60644,-444.80475 -439.13128,-444.80475zm0,257.62045c102.04562,0 184.79581,83.82028 184.79581,187.18332c0,103.36501 -82.75019,187.18431 -184.79581,187.18431s-184.79581,-83.8193 -184.79581,-187.18333c0,-103.36402 82.75019,-187.1843 184.79581,-187.1843z" id="path14142" stroke="null"/>
 </g>
</svg>