<svg width="1200" height="1200" xmlns="http://www.w3.org/2000/svg">
 <g>
  <title>background</title>
  <rect x="-1" y="-1" width="1202" height="1202" id="canvas_background" fill="none"/>
 </g>

 <g>
  <title>Layer 1</title>
  <path stroke="null" id="path14142" d="m604.214181,25.00048c-242.524845,0 -439.13129,199.14557 -439.13129,444.80475c0,82.15452 15.875343,167.00632 61.432598,228.16373l377.698692,507.03104l377.698683,-507.03104c41.379947,-55.54848 61.432598,-153.75001 61.432598,-228.16373c0,-245.65918 -196.606445,-444.80475 -439.131282,-444.80475zm0,257.62045c102.045617,0 184.795804,83.82028 184.795804,187.18332c0,103.36501 -82.750187,187.18431 -184.795804,187.18431s-184.795813,-83.8193 -184.795813,-187.18333c0,-103.36402 82.750187,-187.1843 184.795813,-187.1843z" fill="#ff5656"/>
 </g>
</svg>